<?xml version="1.0" encoding="UTF-8" standalone="no"?>
<svg xmlns="http://www.w3.org/2000/svg" xmlns:xlink="http://www.w3.org/1999/xlink" xmlns:serif="http://www.serif.com/" width="100%" height="100%" viewBox="0 0 284 171" version="1.1" xml:space="preserve" style="fill-rule:evenodd;clip-rule:evenodd;stroke-linejoin:round;stroke-miterlimit:2;">
  <path d="M38.912,68.063c-2.629,-1.314 -5.793,-2.641 -8.361,-1.229c-2.897,1.582 -3.067,6.195 -0.682,8.459c2.386,2.264 6.378,2.215 9.165,0.462c2.787,-1.764 4.479,-4.88 5.27,-8.081c4.114,2.361 11.903,8.678 16.188,11.368c1.655,9.323 -4.516,21.981 -10.419,26.557c-12.305,9.554 -28.103,8.714 -38.704,-3.42c-12.183,-13.948 -8.446,-30.781 1.789,-41.272c8.703,-8.922 18.476,-7.79 18.476,-7.79c0,0 6.037,10.662 7.278,14.959l0,-0.013Z" style="fill:#c1682e;fill-rule:nonzero;"></path>
  <path d="M107.947,56.659l14.946,-2.836c-0,0 -10.723,-11.465 -5.477,-13.461c5.245,-1.996 9.225,10.674 9.225,10.674c0,0 -0.572,-14.216 4.114,-12.719c4.686,1.497 2.276,14.167 2.276,14.167l15.75,-2.044c-0,-0 -0.524,-42.088 -18.866,-47.48c-15.481,-4.564 -13.363,13.839 -13.363,13.839c-0,-0 -10.102,-12.293 -19.985,-5.002c-9.883,7.29 -1.376,31.936 11.392,44.862l-0.012,0Z" style="fill:#c1682e;fill-rule:nonzero;"></path>
  <path d="M220.432,39.254l-9.409,-12.852c0,-0 -29.04,23.478 -15.42,43.487c11.014,16.175 37.584,6.061 49.463,-18.683c-0,0 -14.179,-8.191 -18.975,-10.734c0,-0 -1.18,6.657 -4.235,10.369c-4.674,5.684 -10.139,1.23 -8.398,-3.943c2.056,-6.122 6.974,-7.631 6.974,-7.631l-0,-0.013Z" style="fill:#c1682e;fill-rule:nonzero;"></path>
  <path d="M265.866,81.196c1.363,0.913 8.8,2.702 12.962,1.619c0,-0 6.366,-22.237 -14.751,-26.01c-11.185,-1.996 -19.23,6.183 -20.35,12.305c-1.047,5.708 -0.487,9.883 2.836,14.861c3.688,5.538 -4.041,7.315 -6.938,3.298c-1.996,-2.775 -3.128,-8.836 -0.085,-14.788c-3.347,0.889 -13.449,5.465 -17.465,10.115c-2.422,12.219 7.57,33.397 30.33,27.896c13.656,-3.299 14.983,-15.214 12.341,-22.2c-1.959,-5.161 -7.801,-10.029 -6.316,-13.802c2.373,-6.013 11.185,-1.412 7.424,6.694l0.012,0.012Z" style="fill:#c1682e;fill-rule:nonzero;"></path>
  <path d="M85.649,54.407c3.542,-2.507 7.303,6.001 7.303,6.001l7.169,-3.676c-4.613,-12.78 -28.931,-46.055 -45.265,-28.578c-16.333,17.478 10.553,49.792 10.553,49.792l24.22,-12.755c-5.039,-3.7 -7.534,-8.264 -3.98,-10.784Zm-5.099,-7.473c-1.266,0.682 -3.007,-0.097 -3.895,-1.74c-0.889,-1.643 -0.572,-3.53 0.694,-4.211c1.265,-0.682 3.006,0.097 3.894,1.74c0.889,1.643 0.572,3.53 -0.693,4.211Z" style="fill:#c1682e;fill-rule:nonzero;"></path>
  <path d="M158.347,3.898l-2.775,48.294l11.392,2.824l4.248,-14.447c-0,-0 21.141,7.339 28.103,-6.609c12.499,-25.06 -40.968,-30.062 -40.968,-30.062Zm22.358,25.595c-2.397,-0.62 -3.955,-2.653 -3.469,-4.552c0.487,-1.898 2.824,-2.933 5.222,-2.312c2.398,0.621 3.955,2.653 3.469,4.552c-0.487,1.898 -2.824,2.933 -5.222,2.312Z" style="fill:#c1682e;fill-rule:nonzero;"></path>
  <g>
    <path d="M157.13,74.672c-7.242,0.061 -16.102,25.766 -14.788,26.338c8.24,3.579 15.104,2.313 15.104,2.313c0.962,-10.869 4.504,-0 4.504,-0l10.601,-2.313c-0.645,-9.639 -7.717,-26.399 -15.433,-26.338l0.012,0Zm1.546,16.03c-0.901,-0 -1.631,-0.901 -1.631,-2.009c-0,-1.107 0.73,-2.008 1.631,-2.008c0.9,0 1.631,0.901 1.631,2.008c-0,1.108 -0.731,2.009 -1.631,2.009Z" style="fill:#c1682e;fill-rule:nonzero;"></path>
    <path d="M141.113,81.792c-3.213,-11.891 -30.209,-6.17 -30.209,-6.17l5.781,28.346c12.537,-3.213 27.641,-10.285 24.428,-22.176Zm-11.599,6.524c-1.972,0.475 -3.858,-0.304 -4.199,-1.74c-0.341,-1.437 0.986,-2.97 2.957,-3.445c1.972,-0.475 3.859,0.304 4.199,1.741c0.341,1.436 -0.986,2.969 -2.957,3.444Z" style="fill:#c1682e;fill-rule:nonzero;"></path>
  </g>
  <g>
    <path d="M32.06,142.015l-19.133,3.067l2.252,-23.904l52.494,-3.469l-1.692,20.922l-14.849,1.923l1.96,24.695l-20.192,2.106l-0.84,-25.34Z" style="fill:#c1682e;fill-rule:nonzero;"></path>
    <path d="M74.087,120.387c3.018,-0 35.04,-0.548 35.04,-0.548l0.219,9.968l-11.148,2.252l-0.171,7.388l8.252,-0l0,5.793l-8.252,1.607l0,6.986l14.411,-1.522l1.631,13.182l-36.866,1.606c-0,0 -5.623,-25.389 -3.128,-46.712l0.012,-0Z" style="fill:#c1682e;fill-rule:nonzero;"></path>
    <path d="M245.273,118.525c-20.703,0.438 -24.756,42.866 -24.525,47.661c7.716,3.396 28.663,0.974 28.663,0.974c-0,0 -1.278,-8.617 3.189,-9.262c4.454,-0.633 6.049,8.276 6.049,8.276c7.327,2.228 15.287,0 15.287,0c-0.317,-9.87 -7.96,-48.1 -28.663,-47.662l-0,0.013Zm6.742,27.616c-1.521,0.073 -2.848,-1.497 -2.945,-3.53c-0.097,-2.02 1.059,-3.724 2.58,-3.797c1.522,-0.073 2.848,1.497 2.946,3.529c0.097,2.021 -1.059,3.725 -2.581,3.798Z" style="fill:#c1682e;fill-rule:nonzero;"></path>
    <path d="M149.827,145.958c12.853,-1.29 19.109,-13.242 11.916,-22.808c-8.325,-11.064 -39.142,-6.366 -41.893,-0c-0,4.758 2.544,43.377 2.544,43.377c9.81,1.692 21.713,-0.547 21.713,-0.547c-0,-0 -3.274,-5.55 -1.156,-8.435c2.117,-2.885 6.134,-0.414 6.377,4.722c5.465,2.033 11.818,1.85 17.113,0.487c0.401,-15.262 -16.638,-16.796 -16.638,-16.796l0.024,0Zm-4.272,-10.065c-2.251,-0 -4.077,-1.327 -4.077,-2.958c-0,-1.631 1.826,-2.957 4.077,-2.957c2.252,-0 4.078,1.326 4.078,2.957c-0,1.631 -1.826,2.958 -4.078,2.958Z" style="fill:#c1682e;fill-rule:nonzero;"></path>
    <path d="M190.284,156.437c4.004,-1.667 6.95,9.007 6.95,9.007l17.721,-6.755c-2.069,-9.761 -18.208,-11.879 -18.208,-11.879c11.562,1.935 19.802,-9.067 15.518,-19.681c-6.013,-14.909 -40.031,-7.485 -40.031,-7.485l0,45.91c7.035,2.896 20.995,0.961 20.995,0.961c0,0 -6.962,-8.422 -2.945,-10.09l-0,0.012Zm4.601,-25.072c2.227,0 4.028,1.302 4.028,2.921c0,1.619 -1.801,2.921 -4.028,2.921c-2.228,0 -4.029,-1.302 -4.029,-2.921c-0,-1.619 1.801,-2.921 4.029,-2.921Z" style="fill:#c1682e;fill-rule:nonzero;"></path>
  </g>
</svg>
